<svg xmlns="http://www.w3.org/2000/svg" viewBox="0 0 500 500"><g id="freepik--background-complete--inject-118"><path d="M162.33,80.34l11.58,7.18,2.2-3.54a3.25,3.25,0,0,1,3-1.51,19.87,19.87,0,0,0,2,.07,3.23,3.23,0,0,1,2.94,1.69l2,3.68,12-6.45-2-3.68a3.22,3.22,0,0,1,.22-3.38,17.28,17.28,0,0,0,1.07-1.74A3.24,3.24,0,0,1,200.39,71l4.18.14L205,57.46l-4.19-.13a3.27,3.27,0,0,1-2.82-1.9q-.21-.45-.45-.9c-.16-.29-.32-.58-.5-.87a3.22,3.22,0,0,1,0-3.38l2.21-3.58-11.58-7.18-2.21,3.55a3.24,3.24,0,0,1-3.05,1.5,19.67,19.67,0,0,0-2-.07,3.22,3.22,0,0,1-2.94-1.69l-2-3.68-12,6.45,2,3.68a3.22,3.22,0,0,1-.22,3.38c-.39.56-.74,1.14-1.07,1.73a3.22,3.22,0,0,1-2.94,1.71L157,56l-.42,13.63,4.18.13a3.23,3.23,0,0,1,2.81,1.9c.15.3.3.6.46.9s.32.59.5.87a3.27,3.27,0,0,1,0,3.41Zm8.6-11.54a11.17,11.17,0,1,1,15.12,4.57A11.18,11.18,0,0,1,170.93,68.8Z" style="fill:#ebebeb"></path><path d="M317.9,101.08,321,106.4l1.62-.94a1.48,1.48,0,0,1,1.53.05,9.16,9.16,0,0,0,.8.46,1.47,1.47,0,0,1,.81,1.3v1.88h6.14v-1.88a1.45,1.45,0,0,1,.81-1.3,7.75,7.75,0,0,0,.79-.46,1.48,1.48,0,0,1,1.53-.05l1.63.94,3.07-5.32-1.64-.94a1.44,1.44,0,0,1-.71-1.35c0-.15,0-.3,0-.45s0-.31,0-.46a1.43,1.43,0,0,1,.71-1.34l1.64-1-3.07-5.32-1.63.94a1.45,1.45,0,0,1-1.53,0,7.9,7.9,0,0,0-.8-.46,1.46,1.46,0,0,1-.8-1.3V87.52h-6.14V89.4a1.47,1.47,0,0,1-.81,1.3,7.75,7.75,0,0,0-.79.46,1.45,1.45,0,0,1-1.53,0L321,90.27l-3.07,5.32,1.63.94a1.45,1.45,0,0,1,.71,1.35c0,.15,0,.3,0,.46s0,.3,0,.45a1.44,1.44,0,0,1-.71,1.35Zm5.87-2.74a5,5,0,1,1,5,5A5,5,0,0,1,323.77,98.34Z" style="fill:#ebebeb"></path><path d="M405.81,361.29l-21.39-1.18-.35,6.55A5.09,5.09,0,0,1,381,371a30.68,30.68,0,0,0-2.86,1.45,5.07,5.07,0,0,1-5.33-.12l-5.49-3.58L355.6,386.72l5.49,3.59a5.08,5.08,0,0,1,2.25,4.83,31.18,31.18,0,0,0-.17,3.2,5.09,5.09,0,0,1-2.77,4.57l-5.85,3L364.23,425l5.87-3a5.1,5.1,0,0,1,5.32.49c.42.31.86.61,1.3.9s.89.56,1.34.83a5.08,5.08,0,0,1,2.59,4.64l-.36,6.6,21.38,1.18.37-6.56a5.07,5.07,0,0,1,3.07-4.37,29.24,29.24,0,0,0,2.85-1.44,5.09,5.09,0,0,1,5.33.12l5.49,3.58L430.5,410l-5.5-3.58a5.12,5.12,0,0,1-2.25-4.83,28.41,28.41,0,0,0,.17-3.19,5.09,5.09,0,0,1,2.77-4.57l5.86-3-9.68-19.1-5.87,3a5.06,5.06,0,0,1-5.3-.5c-.43-.31-.86-.61-1.31-.9s-.89-.56-1.34-.83a5.09,5.09,0,0,1-2.6-4.67Zm-3.17,22.39a17.55,17.55,0,1,1-24.29,5.09A17.53,17.53,0,0,1,402.64,383.68Z" style="fill:#ebebeb"></path><path d="M92.59,354l-10.07-.55-.17,3.08a2.4,2.4,0,0,1-1.44,2.06,14.21,14.21,0,0,0-1.35.68,2.39,2.39,0,0,1-2.51-.06l-2.59-1.68L69,366l2.58,1.68a2.4,2.4,0,0,1,1.06,2.28c0,.5-.08,1-.08,1.51a2.39,2.39,0,0,1-1.3,2.15L68.45,375,73,384l2.76-1.4a2.42,2.42,0,0,1,2.51.23c.2.15.4.29.61.42l.63.39a2.39,2.39,0,0,1,1.22,2.19l-.17,3.11,10.07.55.18-3.09a2.38,2.38,0,0,1,1.44-2.05c.46-.21.91-.43,1.35-.68a2.39,2.39,0,0,1,2.5.05l2.59,1.69,5.52-8.45-2.59-1.69a2.37,2.37,0,0,1-1.06-2.27c.05-.5.08-1,.08-1.5a2.39,2.39,0,0,1,1.3-2.15l2.76-1.4-4.56-9-2.76,1.4a2.39,2.39,0,0,1-2.5-.24l-.61-.42c-.21-.14-.42-.27-.64-.39a2.41,2.41,0,0,1-1.22-2.2ZM91.1,364.53a8.26,8.26,0,1,1-11.44,2.39A8.26,8.26,0,0,1,91.1,364.53Z" style="fill:#dbdbdb"></path><rect x="121.57" y="227.35" width="146.15" height="146.15" style="fill:#ebebeb"></rect><rect x="124.65" y="217.16" width="5.1" height="10.19" style="fill:#ebebeb"></rect><rect x="133.64" y="217.16" width="5.1" height="10.19" style="fill:#ebebeb"></rect><rect x="142.63" y="217.16" width="5.1" height="10.19" style="fill:#ebebeb"></rect><rect x="151.63" y="217.16" width="5.1" height="10.19" style="fill:#ebebeb"></rect><rect x="160.62" y="217.16" width="5.1" height="10.19" style="fill:#ebebeb"></rect><rect x="169.62" y="217.16" width="5.1" height="10.19" style="fill:#ebebeb"></rect><rect x="178.61" y="217.16" width="5.1" height="10.19" style="fill:#ebebeb"></rect><rect x="187.6" y="217.16" width="5.1" height="10.19" style="fill:#ebebeb"></rect><rect x="196.6" y="217.16" width="5.1" height="10.19" style="fill:#ebebeb"></rect><rect x="205.59" y="217.16" width="5.1" height="10.19" style="fill:#ebebeb"></rect><rect x="214.59" y="217.16" width="5.1" height="10.19" style="fill:#ebebeb"></rect><rect x="223.58" y="217.16" width="5.1" height="10.19" style="fill:#ebebeb"></rect><rect x="232.57" y="217.16" width="5.1" height="10.19" style="fill:#ebebeb"></rect><rect x="241.57" y="217.16" width="5.1" height="10.19" style="fill:#ebebeb"></rect><rect x="250.56" y="217.16" width="5.1" height="10.19" style="fill:#ebebeb"></rect><rect x="259.56" y="217.16" width="5.1" height="10.19" style="fill:#ebebeb"></rect><rect x="113.93" y="362.79" width="5.1" height="10.19" transform="translate(-251.41 484.36) rotate(-90)" style="fill:#ebebeb"></rect><rect x="113.93" y="353.79" width="5.1" height="10.19" transform="translate(-242.42 475.37) rotate(-90)" style="fill:#ebebeb"></rect><rect x="113.93" y="344.8" width="5.1" height="10.19" transform="translate(-233.42 466.37) rotate(-90)" style="fill:#ebebeb"></rect><rect x="113.93" y="335.81" width="5.1" height="10.19" transform="translate(-224.43 457.38) rotate(-90)" style="fill:#ebebeb"></rect><rect x="113.93" y="326.81" width="5.1" height="10.19" transform="translate(-215.43 448.38) rotate(-90)" style="fill:#ebebeb"></rect><rect x="113.93" y="317.82" width="5.1" height="10.19" transform="translate(-206.44 439.39) rotate(-90)" style="fill:#ebebeb"></rect><rect x="113.93" y="308.82" width="5.1" height="10.19" transform="translate(-197.44 430.4) rotate(-90)" style="fill:#ebebeb"></rect><rect x="113.93" y="299.83" width="5.1" height="10.19" transform="translate(-188.45 421.4) rotate(-90)" style="fill:#ebebeb"></rect><rect x="113.93" y="290.84" width="5.1" height="10.19" transform="translate(-179.46 412.41) rotate(-90)" style="fill:#ebebeb"></rect><rect x="113.93" y="281.84" width="5.1" height="10.19" transform="translate(-170.46 403.41) rotate(-90)" style="fill:#ebebeb"></rect><rect x="113.93" y="272.85" width="5.1" height="10.19" transform="translate(-161.47 394.42) rotate(-90)" style="fill:#ebebeb"></rect><rect x="113.93" y="263.85" width="5.1" height="10.19" transform="translate(-152.47 385.43) rotate(-90)" style="fill:#ebebeb"></rect><rect x="113.93" y="254.86" width="5.1" height="10.19" transform="translate(-143.48 376.43) rotate(-90)" style="fill:#ebebeb"></rect><rect x="113.93" y="245.86" width="5.1" height="10.19" transform="translate(-134.49 367.44) rotate(-90)" style="fill:#ebebeb"></rect><rect x="113.93" y="236.87" width="5.1" height="10.19" transform="translate(-125.49 358.44) rotate(-90)" style="fill:#ebebeb"></rect><rect x="113.93" y="227.88" width="5.1" height="10.19" transform="translate(-116.5 349.45) rotate(-90)" style="fill:#ebebeb"></rect><rect x="259.56" y="373.51" width="5.1" height="10.19" transform="translate(524.21 757.21) rotate(180)" style="fill:#ebebeb"></rect><rect x="250.56" y="373.51" width="5.1" height="10.19" transform="translate(506.22 757.21) rotate(180)" style="fill:#ebebeb"></rect><rect x="241.57" y="373.51" width="5.1" height="10.19" transform="translate(488.23 757.21) rotate(180)" style="fill:#ebebeb"></rect><rect x="232.57" y="373.51" width="5.1" height="10.19" transform="translate(470.25 757.21) rotate(180)" style="fill:#ebebeb"></rect><rect x="223.58" y="373.51" width="5.1" height="10.19" transform="translate(452.26 757.21) rotate(180)" style="fill:#ebebeb"></rect><rect x="214.59" y="373.51" width="5.1" height="10.19" transform="translate(434.27 757.21) rotate(180)" style="fill:#ebebeb"></rect><rect x="205.59" y="373.51" width="5.1" height="10.19" transform="translate(416.28 757.21) rotate(180)" style="fill:#ebebeb"></rect><rect x="196.6" y="373.51" width="5.1" height="10.19" transform="translate(398.29 757.21) rotate(180)" style="fill:#ebebeb"></rect><rect x="187.6" y="373.51" width="5.1" height="10.19" transform="translate(380.3 757.21) rotate(180)" style="fill:#ebebeb"></rect><rect x="178.61" y="373.51" width="5.1" height="10.19" transform="translate(362.32 757.21) rotate(180)" style="fill:#ebebeb"></rect><rect x="169.62" y="373.51" width="5.1" height="10.19" transform="translate(344.33 757.21) rotate(180)" style="fill:#ebebeb"></rect><rect x="160.62" y="373.51" width="5.1" height="10.19" transform="translate(326.34 757.21) rotate(180)" style="fill:#ebebeb"></rect><rect x="151.63" y="373.51" width="5.1" height="10.19" transform="translate(308.35 757.21) rotate(180)" style="fill:#ebebeb"></rect><rect x="142.63" y="373.51" width="5.1" height="10.19" transform="translate(290.36 757.21) rotate(180)" style="fill:#ebebeb"></rect><rect x="133.64" y="373.51" width="5.1" height="10.19" transform="translate(272.38 757.21) rotate(180)" style="fill:#ebebeb"></rect><rect x="124.65" y="373.51" width="5.1" height="10.19" transform="translate(254.39 757.21) rotate(180)" style="fill:#ebebeb"></rect><rect x="270.28" y="227.88" width="5.1" height="10.19" transform="translate(505.8 -39.85) rotate(90)" style="fill:#ebebeb"></rect><rect x="270.28" y="236.87" width="5.1" height="10.19" transform="translate(514.79 -30.86) rotate(90)" style="fill:#ebebeb"></rect><rect x="270.28" y="245.86" width="5.1" height="10.19" transform="translate(523.78 -21.86) rotate(90)" style="fill:#ebebeb"></rect><rect x="270.28" y="254.86" width="5.1" height="10.19" transform="translate(532.78 -12.87) rotate(90)" style="fill:#ebebeb"></rect><rect x="270.28" y="263.85" width="5.1" height="10.19" transform="translate(541.77 -3.87) rotate(90)" style="fill:#ebebeb"></rect><rect x="270.28" y="272.85" width="5.1" height="10.19" transform="translate(550.77 5.12) rotate(90)" style="fill:#ebebeb"></rect><rect x="270.28" y="281.84" width="5.1" height="10.19" transform="translate(559.76 14.11) rotate(90)" style="fill:#ebebeb"></rect><rect x="270.28" y="290.84" width="5.1" height="10.19" transform="translate(568.76 23.11) rotate(90)" style="fill:#ebebeb"></rect><rect x="270.28" y="299.83" width="5.1" height="10.19" transform="translate(577.75 32.1) rotate(90)" style="fill:#ebebeb"></rect><rect x="270.28" y="308.82" width="5.1" height="10.19" transform="translate(586.74 41.1) rotate(90)" style="fill:#ebebeb"></rect><rect x="270.28" y="317.82" width="5.1" height="10.19" transform="translate(595.74 50.09) rotate(90)" style="fill:#ebebeb"></rect><rect x="270.28" y="326.81" width="5.1" height="10.19" transform="translate(604.73 59.08) rotate(90)" style="fill:#ebebeb"></rect><rect x="270.28" y="335.81" width="5.1" height="10.19" transform="translate(613.73 68.08) rotate(90)" style="fill:#ebebeb"></rect><rect x="270.28" y="344.8" width="5.1" height="10.19" transform="translate(622.72 77.07) rotate(90)" style="fill:#ebebeb"></rect><rect x="270.28" y="353.79" width="5.1" height="10.19" transform="translate(631.71 86.07) rotate(90)" style="fill:#ebebeb"></rect><rect x="270.28" y="362.79" width="5.1" height="10.19" transform="translate(640.71 95.06) rotate(90)" style="fill:#ebebeb"></rect><path d="M137.35,361.44a5.1,5.1,0,1,0-5.1,5.09A5.1,5.1,0,0,0,137.35,361.44Z" style="fill:#ebebeb"></path><polygon points="288.19 366.98 277.92 366.98 277.92 368.79 287.44 368.79 309.7 391.05 310.97 389.77 288.19 366.98" style="fill:#ebebeb"></polygon><polygon points="290.13 357.99 277.92 357.99 277.92 359.79 289.39 359.79 320.85 391.25 322.12 389.98 290.13 357.99" style="fill:#ebebeb"></polygon><polygon points="294.5 232.07 277.92 232.07 277.92 233.87 293.75 233.87 307.57 247.69 371.11 247.69 371.11 245.89 308.32 245.89 294.5 232.07" style="fill:#ebebeb"></polygon><polygon points="288.94 241.06 277.92 241.06 277.92 242.87 288.19 242.87 309.34 264.02 371.11 264.02 371.11 262.22 310.09 262.22 288.94 241.06" style="fill:#ebebeb"></polygon><rect x="371.11" y="241.13" width="25.16" height="11.32" style="fill:#ebebeb"></rect><rect x="371.11" y="241.13" width="25.16" height="11.32" style="fill:#ebebeb;opacity:0.2"></rect><rect x="371.11" y="241.13" width="5.3" height="11.32" style="fill:#ebebeb;opacity:0.2"></rect><rect x="390.96" y="241.13" width="5.3" height="11.32" style="fill:#ebebeb;opacity:0.2"></rect><rect x="371.11" y="257.46" width="25.16" height="11.32" style="fill:#ebebeb"></rect><rect x="371.11" y="257.46" width="25.16" height="11.32" style="fill:#ebebeb;opacity:0.2"></rect><rect x="371.11" y="257.46" width="5.3" height="11.32" style="fill:#ebebeb;opacity:0.2"></rect><rect x="390.96" y="257.46" width="5.3" height="11.32" style="fill:#ebebeb;opacity:0.2"></rect><rect x="39.29" y="325.27" width="36.39" height="11.32" transform="translate(-273.44 388.42) rotate(-90)" style="fill:#ebebeb"></rect><rect x="39.29" y="325.27" width="36.39" height="11.32" transform="translate(-273.44 388.42) rotate(-90)" style="fill:#ebebeb;opacity:0.2"></rect><rect x="53.65" y="339.63" width="7.67" height="11.32" transform="translate(-287.8 402.78) rotate(-90)" style="fill:#ebebeb;opacity:0.2"></rect><rect x="53.65" y="310.91" width="7.67" height="11.32" transform="translate(-259.08 374.06) rotate(-90)" style="fill:#ebebeb;opacity:0.2"></rect><rect x="39.29" y="243.21" width="36.39" height="11.32" transform="translate(-191.38 306.36) rotate(-90)" style="fill:#ebebeb"></rect><rect x="39.29" y="243.21" width="36.39" height="11.32" transform="translate(-191.38 306.36) rotate(-90)" style="fill:#ebebeb;opacity:0.2"></rect><rect x="53.65" y="257.57" width="7.67" height="11.32" transform="translate(-205.74 320.72) rotate(-90)" style="fill:#ebebeb;opacity:0.2"></rect><rect x="53.65" y="228.85" width="7.67" height="11.32" transform="translate(-177.02 291.99) rotate(-90)" style="fill:#ebebeb;opacity:0.2"></rect><rect x="371.11" y="273.79" width="25.16" height="11.32" style="fill:#ebebeb"></rect><rect x="371.11" y="273.79" width="25.16" height="11.32" style="fill:#ebebeb;opacity:0.2"></rect><rect x="371.11" y="273.79" width="5.3" height="11.32" style="fill:#ebebeb;opacity:0.2"></rect><rect x="390.96" y="273.79" width="5.3" height="11.32" style="fill:#ebebeb;opacity:0.2"></rect><rect x="371.11" y="290.12" width="25.16" height="11.32" style="fill:#ebebeb"></rect><rect x="371.11" y="290.12" width="25.16" height="11.32" style="fill:#ebebeb;opacity:0.2"></rect><rect x="371.11" y="290.12" width="5.3" height="11.32" style="fill:#ebebeb;opacity:0.2"></rect><rect x="390.96" y="290.12" width="5.3" height="11.32" style="fill:#ebebeb;opacity:0.2"></rect><rect x="371.11" y="306.45" width="25.16" height="11.32" style="fill:#ebebeb"></rect><rect x="371.11" y="306.45" width="25.16" height="11.32" style="fill:#ebebeb;opacity:0.2"></rect><rect x="371.11" y="306.45" width="5.3" height="11.32" style="fill:#ebebeb;opacity:0.2"></rect><rect x="390.96" y="306.45" width="5.3" height="11.32" style="fill:#ebebeb;opacity:0.2"></rect><path d="M142.64,152.24V67.51H100.28v84.73h15.49a5.7,5.7,0,0,1,11.39,0Z" style="fill:#ebebeb"></path><rect x="92.63" y="140.76" width="5.1" height="10.19" transform="translate(-50.67 241.04) rotate(-90)" style="fill:#ebebeb"></rect><rect x="92.63" y="131.76" width="5.1" height="10.19" transform="translate(-41.68 232.04) rotate(-90)" style="fill:#ebebeb"></rect><rect x="92.63" y="122.77" width="5.1" height="10.19" transform="translate(-32.68 223.05) rotate(-90)" style="fill:#ebebeb"></rect><rect x="92.63" y="113.78" width="5.1" height="10.19" transform="translate(-23.69 214.06) rotate(-90)" style="fill:#ebebeb"></rect><rect x="92.63" y="104.78" width="5.1" height="10.19" transform="translate(-14.7 205.06) rotate(-90)" style="fill:#ebebeb"></rect><rect x="92.63" y="95.79" width="5.1" height="10.19" transform="translate(-5.7 196.07) rotate(-90)" style="fill:#ebebeb"></rect><rect x="92.63" y="86.79" width="5.1" height="10.19" transform="translate(3.29 187.07) rotate(-90)" style="fill:#ebebeb"></rect><rect x="92.63" y="77.8" width="5.1" height="10.19" transform="translate(12.29 178.08) rotate(-90)" style="fill:#ebebeb"></rect><rect x="92.63" y="68.81" width="5.1" height="10.19" transform="translate(21.28 169.09) rotate(-90)" style="fill:#ebebeb"></rect><rect x="145.18" y="140.76" width="5.1" height="10.19" transform="translate(1.88 293.59) rotate(-90)" style="fill:#ebebeb"></rect><rect x="145.18" y="131.76" width="5.1" height="10.19" transform="translate(10.87 284.59) rotate(-90)" style="fill:#ebebeb"></rect><rect x="145.18" y="122.77" width="5.1" height="10.19" transform="translate(19.86 275.6) rotate(-90)" style="fill:#ebebeb"></rect><rect x="145.18" y="113.78" width="5.1" height="10.19" transform="translate(28.86 266.6) rotate(-90)" style="fill:#ebebeb"></rect><rect x="145.18" y="104.78" width="5.1" height="10.19" transform="translate(37.85 257.61) rotate(-90)" style="fill:#ebebeb"></rect><rect x="145.18" y="95.79" width="5.1" height="10.19" transform="translate(46.85 248.62) rotate(-90)" style="fill:#ebebeb"></rect><rect x="145.18" y="86.79" width="5.1" height="10.19" transform="translate(55.84 239.62) rotate(-90)" style="fill:#ebebeb"></rect><rect x="145.18" y="77.8" width="5.1" height="10.19" transform="translate(64.84 230.63) rotate(-90)" style="fill:#ebebeb"></rect><rect x="145.18" y="68.81" width="5.1" height="10.19" transform="translate(73.83 221.63) rotate(-90)" style="fill:#ebebeb"></rect><rect x="362.03" y="163.06" width="46.73" height="46.73" style="fill:#ebebeb"></rect><rect x="411.32" y="163.34" width="5.1" height="10.19" transform="translate(582.3 -245.42) rotate(90)" style="fill:#ebebeb"></rect><rect x="411.32" y="172.34" width="5.1" height="10.19" transform="translate(591.3 -236.43) rotate(90)" style="fill:#ebebeb"></rect><rect x="411.32" y="181.33" width="5.1" height="10.19" transform="translate(600.29 -227.44) rotate(90)" style="fill:#ebebeb"></rect><rect x="411.32" y="190.33" width="5.1" height="10.19" transform="translate(609.29 -218.44) rotate(90)" style="fill:#ebebeb"></rect><rect x="411.32" y="199.32" width="5.1" height="10.19" transform="translate(618.28 -209.45) rotate(90)" style="fill:#ebebeb"></rect><rect x="354.39" y="163.34" width="5.1" height="10.19" transform="translate(525.38 -188.5) rotate(90)" style="fill:#ebebeb"></rect><rect x="354.39" y="172.34" width="5.1" height="10.19" transform="translate(534.37 -179.5) rotate(90)" style="fill:#ebebeb"></rect><rect x="354.39" y="181.33" width="5.1" height="10.19" transform="translate(543.36 -170.51) rotate(90)" style="fill:#ebebeb"></rect><rect x="354.39" y="190.33" width="5.1" height="10.19" transform="translate(552.36 -161.51) rotate(90)" style="fill:#ebebeb"></rect><rect x="354.39" y="199.32" width="5.1" height="10.19" transform="translate(561.35 -152.52) rotate(90)" style="fill:#ebebeb"></rect><rect x="362.03" y="103.1" width="46.73" height="46.73" style="fill:#ebebeb"></rect><rect x="411.32" y="103.38" width="5.1" height="10.19" transform="translate(522.34 -305.38) rotate(90)" style="fill:#ebebeb"></rect><rect x="411.32" y="112.38" width="5.1" height="10.19" transform="translate(531.34 -296.39) rotate(90)" style="fill:#ebebeb"></rect><rect x="411.32" y="121.37" width="5.1" height="10.19" transform="translate(540.33 -287.4) rotate(90)" style="fill:#ebebeb"></rect><rect x="411.32" y="130.36" width="5.1" height="10.19" transform="translate(549.33 -278.4) rotate(90)" style="fill:#ebebeb"></rect><rect x="411.32" y="139.36" width="5.1" height="10.19" transform="translate(558.32 -269.41) rotate(90)" style="fill:#ebebeb"></rect><rect x="354.39" y="103.38" width="5.1" height="10.19" transform="translate(465.42 -248.46) rotate(90)" style="fill:#ebebeb"></rect><rect x="354.39" y="112.38" width="5.1" height="10.19" transform="translate(474.41 -239.46) rotate(90)" style="fill:#ebebeb"></rect><rect x="354.39" y="121.37" width="5.1" height="10.19" transform="translate(483.4 -230.47) rotate(90)" style="fill:#ebebeb"></rect><rect x="354.39" y="130.37" width="5.1" height="10.19" transform="translate(492.4 -221.47) rotate(90)" style="fill:#ebebeb"></rect><rect x="354.39" y="139.36" width="5.1" height="10.19" transform="translate(501.39 -212.48) rotate(90)" style="fill:#ebebeb"></rect><polygon points="283.14 250.26 277.92 250.26 277.92 252.07 282.39 252.07 310.68 280.35 371.11 280.35 371.11 278.55 311.42 278.55 283.14 250.26" style="fill:#ebebeb"></polygon><polygon points="291.55 294.54 277.92 294.54 277.92 296.34 290.81 296.34 307.48 313.01 371.11 313.01 371.11 311.21 308.22 311.21 291.55 294.54" style="fill:#ebebeb"></polygon><polygon points="293.33 276.45 277.92 276.45 277.92 278.25 292.58 278.25 310.68 296.34 371.11 296.34 371.11 294.54 311.42 294.54 293.33 276.45" style="fill:#ebebeb"></polygon><path d="M315.25,392.47a3.38,3.38,0,1,1-3.38-3.38A3.38,3.38,0,0,1,315.25,392.47Zm-1.8,0a1.58,1.58,0,1,0-1.58,1.57A1.57,1.57,0,0,0,313.45,392.47Z" style="fill:#ebebeb"></path><path d="M326.4,392.3a3.38,3.38,0,1,1-3.38-3.38A3.39,3.39,0,0,1,326.4,392.3Zm-1.81,0a1.57,1.57,0,1,0-1.57,1.57A1.57,1.57,0,0,0,324.59,392.3Z" style="fill:#ebebeb"></path><path d="M90.28,242a3.38,3.38,0,1,1-3.37-3.38A3.37,3.37,0,0,1,90.28,242Zm-1.8,0a1.57,1.57,0,1,0-1.57,1.57A1.57,1.57,0,0,0,88.48,242Z" style="fill:#ebebeb"></path><path d="M90.28,223.08a3.38,3.38,0,1,1-3.37-3.38A3.37,3.37,0,0,1,90.28,223.08Zm-1.8,0a1.57,1.57,0,1,0-1.57,1.57A1.57,1.57,0,0,0,88.48,223.08Z" style="fill:#ebebeb"></path><path d="M146,172.26a3.38,3.38,0,1,1-3.38-3.37A3.39,3.39,0,0,1,146,172.26Zm-1.81,0a1.57,1.57,0,1,0-1.57,1.57A1.57,1.57,0,0,0,144.2,172.26Z" style="fill:#ebebeb"></path><path d="M162.72,172.26a3.38,3.38,0,1,1-3.37-3.37A3.38,3.38,0,0,1,162.72,172.26Zm-1.8,0a1.57,1.57,0,1,0-1.57,1.57A1.58,1.58,0,0,0,160.92,172.26Z" style="fill:#ebebeb"></path><path d="M188.51,156.85a3.38,3.38,0,1,1-3.38-3.38A3.38,3.38,0,0,1,188.51,156.85Zm-1.81,0a1.57,1.57,0,1,0-1.57,1.57A1.57,1.57,0,0,0,186.7,156.85Z" style="fill:#ebebeb"></path><path d="M201.55,156.85a3.38,3.38,0,1,1-3.38-3.38A3.38,3.38,0,0,1,201.55,156.85Zm-1.81,0a1.57,1.57,0,1,0-1.57,1.57A1.57,1.57,0,0,0,199.74,156.85Z" style="fill:#ebebeb"></path><path d="M214.59,156.85a3.38,3.38,0,1,1-3.38-3.38A3.37,3.37,0,0,1,214.59,156.85Zm-1.8,0a1.58,1.58,0,1,0-1.58,1.57A1.57,1.57,0,0,0,212.79,156.85Z" style="fill:#ebebeb"></path><path d="M319.66,114.93a3.38,3.38,0,1,1-3.38-3.38A3.38,3.38,0,0,1,319.66,114.93Zm-1.81,0a1.57,1.57,0,1,0-1.57,1.57A1.57,1.57,0,0,0,317.85,114.93Z" style="fill:#ebebeb"></path><path d="M69.39,145.86A3.38,3.38,0,1,1,66,142.48,3.37,3.37,0,0,1,69.39,145.86Zm-1.8,0A1.57,1.57,0,1,0,66,147.43,1.58,1.58,0,0,0,67.59,145.86Z" style="fill:#ebebeb"></path><path d="M69.39,100.89A3.38,3.38,0,1,1,66,97.51,3.37,3.37,0,0,1,69.39,100.89Zm-1.8,0A1.57,1.57,0,1,0,66,102.46,1.58,1.58,0,0,0,67.59,100.89Z" style="fill:#ebebeb"></path><path d="M60.2,62.38A3.38,3.38,0,1,1,56.83,59,3.37,3.37,0,0,1,60.2,62.38Zm-1.8,0A1.57,1.57,0,1,0,56.83,64,1.58,1.58,0,0,0,58.4,62.38Z" style="fill:#ebebeb"></path><path d="M73.34,62.38A3.38,3.38,0,1,1,70,59,3.37,3.37,0,0,1,73.34,62.38Zm-1.8,0A1.57,1.57,0,1,0,70,64,1.57,1.57,0,0,0,71.54,62.38Z" style="fill:#ebebeb"></path><path d="M448.17,150.73a3.38,3.38,0,1,1-3.38-3.37A3.38,3.38,0,0,1,448.17,150.73Zm-1.8,0a1.58,1.58,0,1,0-1.58,1.58A1.58,1.58,0,0,0,446.37,150.73Z" style="fill:#ebebeb"></path><path d="M242.25,417a7,7,0,1,1-7-7A7,7,0,0,1,242.25,417Zm-3.6,0a3.4,3.4,0,1,0-3.4,3.39A3.4,3.4,0,0,0,238.65,417Z" style="fill:#ebebeb"></path><path d="M242.25,434a7,7,0,1,1-7-7A7,7,0,0,1,242.25,434Zm-3.6,0a3.4,3.4,0,1,0-3.4,3.39A3.4,3.4,0,0,0,238.65,434Z" style="fill:#ebebeb"></path><path d="M258.93,417a7,7,0,1,1-7-7A7,7,0,0,1,258.93,417Zm-3.61,0a3.4,3.4,0,1,0-3.39,3.39A3.4,3.4,0,0,0,255.32,417Z" style="fill:#ebebeb"></path><path d="M258.93,434a7,7,0,1,1-7-7A7,7,0,0,1,258.93,434Zm-3.61,0a3.4,3.4,0,1,0-3.39,3.39A3.39,3.39,0,0,0,255.32,434Z" style="fill:#ebebeb"></path><path d="M275.6,417a7,7,0,1,1-7-7A7,7,0,0,1,275.6,417Zm-3.6,0a3.4,3.4,0,1,0-3.4,3.39A3.4,3.4,0,0,0,272,417Z" style="fill:#ebebeb"></path><path d="M275.6,434a7,7,0,1,1-7-7A7,7,0,0,1,275.6,434Zm-3.6,0a3.4,3.4,0,1,0-3.4,3.39A3.4,3.4,0,0,0,272,434Z" style="fill:#ebebeb"></path><path d="M292.28,417a7,7,0,1,1-7-7A7,7,0,0,1,292.28,417Zm-3.61,0a3.39,3.39,0,1,0-3.39,3.39A3.4,3.4,0,0,0,288.67,417Z" style="fill:#ebebeb"></path><path d="M292.28,434a7,7,0,1,1-7-7A7,7,0,0,1,292.28,434Zm-3.61,0a3.39,3.39,0,1,0-3.39,3.39A3.39,3.39,0,0,0,288.67,434Z" style="fill:#ebebeb"></path><polygon points="174.01 144.95 152.83 144.95 152.83 146.76 173.26 146.76 182.79 156.29 184.07 155.01 174.01 144.95" style="fill:#ebebeb"></polygon><polygon points="178.98 135.96 152.83 135.96 152.83 137.76 178.24 137.76 196.11 155.64 197.39 154.37 178.98 135.96" style="fill:#ebebeb"></polygon><polygon points="351.84 143.34 252.74 143.34 216.35 179.73 216.35 217.16 218.16 217.16 218.16 180.47 253.49 145.15 351.84 145.15 351.84 143.34" style="fill:#ebebeb"></polygon><polygon points="351.84 167.54 266.4 167.54 243.1 190.84 243.1 217.16 244.91 217.16 244.91 191.59 267.15 169.34 351.84 169.34 351.84 167.54" style="fill:#ebebeb"></polygon><polygon points="351.84 176.5 272.41 176.5 252.21 196.7 252.21 217.16 254.01 217.16 254.01 197.44 273.16 178.3 351.84 178.3 351.84 176.5" style="fill:#ebebeb"></polygon><polygon points="430.33 134.56 418.96 134.56 418.96 136.36 429.58 136.36 442.81 149.59 444.08 148.31 430.33 134.56" style="fill:#ebebeb"></polygon><rect x="67.91" y="144.95" width="22.18" height="1.8" style="fill:#ebebeb"></rect><polygon points="58.99 63.25 57.72 64.53 76.99 83.8 90.09 83.8 90.09 82 77.74 82 58.99 63.25" style="fill:#ebebeb"></polygon><polygon points="72.06 63.52 70.79 64.8 80.29 74.29 90.09 74.29 90.09 72.49 81.03 72.49 72.06 63.52" style="fill:#ebebeb"></polygon><rect x="67.91" y="99.98" width="22.18" height="1.8" style="fill:#ebebeb"></rect><polygon points="183.03 126.96 152.83 126.96 152.83 128.76 182.28 128.76 208.74 155.22 210.02 153.95 183.03 126.96" style="fill:#ebebeb"></polygon><polygon points="58.39 267.06 56.59 267.06 56.59 277.19 67.32 287.92 111.38 287.92 111.38 286.12 68.06 286.12 58.39 276.45 58.39 267.06" style="fill:#ebebeb"></polygon><polygon points="126.26 182.27 94.9 182.27 56.59 220.58 56.59 230.43 58.39 230.43 58.39 221.33 95.65 184.07 125.51 184.07 135.18 193.73 135.18 217.16 136.98 217.16 136.98 192.99 126.26 182.27" style="fill:#ebebeb"></polygon><polygon points="58.39 349.13 56.59 349.13 56.59 358.51 66.87 368.79 111.38 368.79 111.38 366.98 67.61 366.98 58.39 357.76 58.39 349.13" style="fill:#ebebeb"></polygon><polygon points="111.38 295.15 67.77 295.15 56.59 306.33 56.59 312.73 58.39 312.73 58.39 307.07 68.51 296.95 111.38 296.95 111.38 295.15" style="fill:#ebebeb"></polygon><rect x="88.61" y="241.07" width="22.77" height="1.8" style="fill:#ebebeb"></rect><polygon points="89.36 224.28 88.09 225.55 96.41 233.87 111.38 233.87 111.38 232.07 97.16 232.07 89.36 224.28" style="fill:#ebebeb"></polygon><polygon points="144.52 172.94 143.24 174.22 162.27 193.25 162.27 217.16 164.07 217.16 164.07 192.5 144.52 172.94" style="fill:#ebebeb"></polygon><polygon points="161.53 173.17 160.25 174.44 171.26 185.45 171.26 217.16 173.06 217.16 173.06 184.71 161.53 173.17" style="fill:#ebebeb"></polygon><polygon points="429.07 176.54 418.96 176.54 418.96 178.34 428.32 178.34 432.93 182.95 432.93 231.55 418.59 245.89 396.27 245.89 396.27 247.69 419.33 247.69 434.73 232.29 434.73 182.21 429.07 176.54" style="fill:#ebebeb"></polygon><polygon points="430.23 167.62 418.96 167.62 418.96 169.42 429.48 169.42 441.13 181.07 441.13 234.58 413.49 262.22 396.81 262.22 396.81 264.02 414.24 264.02 442.94 235.32 442.94 180.33 430.23 167.62" style="fill:#ebebeb"></polygon><rect x="234.35" y="383.7" width="1.8" height="28.13" style="fill:#ebebeb"></rect><polygon points="263.01 383.7 261.2 383.7 261.2 393.13 267.71 399.64 267.71 411.83 269.52 411.83 269.52 398.9 263.01 392.39 263.01 383.7" style="fill:#ebebeb"></polygon><polygon points="245.02 383.7 243.22 383.7 243.22 393.51 251.17 401.46 251.17 412.25 252.97 412.25 252.97 400.71 245.02 392.76 245.02 383.7" style="fill:#ebebeb"></polygon><polygon points="314.63 349.09 277.92 349.09 277.92 350.89 313.88 350.89 332.28 369.3 332.28 408.04 307.24 433.09 290.48 433.09 290.48 434.89 307.98 434.89 334.08 408.79 334.08 368.55 314.63 349.09" style="fill:#ebebeb"></polygon><polygon points="318.27 116.17 317 117.44 326.93 127.37 351.84 127.37 351.84 125.57 327.67 125.57 318.27 116.17" style="fill:#ebebeb"></polygon></g><g id="freepik--Plants--inject-118"><path d="M325.49,381.67c-3.74-5.95-8-12.52-7-19.84.93-6.76,3.94-14.05,10.52-17.05,1.88-.86,3.21-1.08,3.56,1.26.53,3.56-1.37,7.65-2.45,11A72.42,72.42,0,0,0,327,370.07c-.4,3.13-.48,6.29-.8,9.42,0,.4-.08.79-.13,1.19,0,.14,0,.3-.06.45l.1.17a.35.35,0,0,1,0,.33.36.36,0,0,1-.07.1A.37.37,0,0,1,325.49,381.67Z" style="fill:#455a64"></path><path d="M326.07,381.73c-3-5.39-6.61-11-5.47-17.38a28.52,28.52,0,0,1,3.15-8.46c.64-1.2,2.56-4.8,4.2-4.72,3,.13-2.13,11.6-2.46,13a30,30,0,0,0,.73,15.35c0,.4-.08.79-.13,1.19a33.6,33.6,0,0,1-1.75-10.83c.06-5.11,2.17-9.16,3.57-13.94.3-1,1.45-4.28-.39-4.19-1.21.06-3.1,3.55-3.5,4.31a28.09,28.09,0,0,0-3,8c-1.25,6.42,2.22,12.08,5.12,17.59A.36.36,0,0,1,326.07,381.73Z" style="fill:#fff"></path><path d="M323.73,387.17l-.78.26h0a.21.21,0,0,1-.19,0,.3.3,0,0,1-.06-.39.24.24,0,0,1,.14-.09l.12,0,.24-.06v0l.06-.06c3.39-3.41,7.33-6.26,10.69-9.73,3.21-3.31,6.19-6.84,9.65-9.9,2.19-1.93,13.58-10.85,15.21-4.49.72,2.82-1.82,6.51-3.38,8.65a29.37,29.37,0,0,1-7.73,7.18C340.35,383.26,331.87,384.49,323.73,387.17Z" style="fill:#455a64"></path><path d="M340.18,380a35,35,0,0,0,7.9-5.76c.81-.8,4.67-4.63,3.66-6.11-.64-1-2.71,0-3.41.31-3,1.25-5.25,3.78-7.63,5.88a131.39,131.39,0,0,1-15.38,11.62l-1.14.47-.94.4-.32.14-.25.11a.3.3,0,0,0,.06.39l.73-.3-.54.34h0l.64-.22.15-.05c.31-.18.62-.37.91-.56C329.88,384.5,335.23,382.66,340.18,380Zm-13.58,5.43q4.74-3.06,9.16-6.58c2.38-1.87,4.67-3.86,6.91-5.89a31.11,31.11,0,0,1,4-3.25c1.1-.7,5.37-3,4,.69-1,2.65-4.76,5.35-6.95,6.88a49.6,49.6,0,0,1-7.78,4.32C332.89,382.94,329.73,384.14,326.6,385.38Z" style="fill:#fff"></path><path d="M309,400.13h0l-.16-.21c-2.95-5.72-7.77-12.81-6.78-19.57.73-5,4.14-11.46,9.32-13,5.84-1.76,3.72,8.75,3.3,11.44a198.6,198.6,0,0,1-5.33,21.31l-.06.12a0,0,0,0,0,0,0C309.19,400.33,309.07,400.24,309,400.13Z" style="fill:#455a64"></path><path d="M309.24,400.23c0-.44,0-.87.05-1.31.17-5,.56-10,1.2-14.92.16-1.25,2.08-10.74-.45-10.52-1.53.13-2.78,3.62-3.23,4.76a20.06,20.06,0,0,0-1.31,6.4c-.16,5,2,9.82,3.28,14.66a5.27,5.27,0,0,1,.19.68v.14h0C309.07,400.24,309.19,400.32,309.24,400.23ZM306,387.4a20,20,0,0,1,.45-6.67c.35-1.45,1.76-6.67,3.63-6.58,1,0,.83.65.92,1.78a13.71,13.71,0,0,1,0,1.57c-.07,1.29-.29,2.56-.47,3.83-.34,2.24-.62,4.46-.84,6.71-.39,3.68-.61,7.36-.72,11C308.08,395.16,306.43,391.41,306,387.4Z" style="fill:#fff"></path><path d="M326.31,403.62a38,38,0,0,1-22.16.15.35.35,0,0,1-.12-.07.3.3,0,0,1-.06-.35.27.27,0,0,1,.34-.15l.44.11c8.09-3.47,16.18-6.81,24.21-10.44,1.88-.85,14.05-6.06,14.23-1.49.11,2.81-4.46,5.66-6.44,7.06A38.28,38.28,0,0,1,326.31,403.62Z" style="fill:#455a64"></path><path d="M335.25,395.72c.53-.55,1-1.26.13-1.71-1.63-.86-7.28,1.71-8.89,2.34-6.64,2.61-13.33,4.57-20.14,6.57l-1.73.51-.65-.08a.28.28,0,0,0,.06.35l.18,0,.87.09h0A45,45,0,0,0,319,403a42.78,42.78,0,0,0,8.41-2.72C329.9,399.2,333.38,397.76,335.25,395.72Zm-29.76,7.77c-.15,0-.28,0-.42,0,.24,0,.48-.1.72-.17a126.44,126.44,0,0,0,15.83-4.65c2.62-1,5.16-2.12,7.81-3,1.12-.37,4.26-1.54,5.2-1s-.18,1.19-.77,1.64c-.43.33-1.27.82-1.69,1.08A44.28,44.28,0,0,1,305.49,403.49Z" style="fill:#fff"></path><path d="M288.41,414.15l-.65-1.11c1-.59,1.94-1.17,2.89-1.77,3.87-2.42,7.72-4.87,11.53-7.4,2.17-1.44,4.31-2.9,6.38-4.42a1.7,1.7,0,0,1,.22-.15c.16-.13.33-.26.51-.38l.54-.42a55.26,55.26,0,0,0,12.28-12.24c1.12-1.6,2.17-3.24,3.19-4.91l.28-.49a.57.57,0,0,0,.08-.13c.11-.16.2-.33.3-.5l.22-.38c3-5.2,5.64-10.64,8.37-16,.77-1.52,1.56-3.05,2.36-4.56a1.71,1.71,0,0,1,.14-.27,3.59,3.59,0,0,1,.17-.34c3.49-6.71,7.06-13.4,10.37-20.18.12-.26.49,0,.37.21-2.17,4.55-4.23,9.15-6.32,13.74-.28.61-.57,1.22-.84,1.83-.55,1.22-1.1,2.42-1.66,3.63-1.12,2.41-2.24,4.8-3.42,7.18-3.27,6.7-6.5,13.57-10.59,19.84-.31.47-.62.93-.95,1.39-.19.3-.39.59-.6.86s-.46.66-.7,1c-4.22,5.76-9.54,10-15.31,13.91l-1.22.81-.56.37a2.23,2.23,0,0,0-.3.2l-.4.26h0l-.29.19-1.06.67c-3.85,2.46-7.73,4.85-11.62,7.23C290.88,412.59,289.64,413.37,288.41,414.15Z" style="fill:#455a64"></path><path d="M340.6,339.47c2.32-5.42,8.49-14.22,15.48-12.29a5.53,5.53,0,0,1,4.16,6.08c-.34,3.36-3,6.31-5.19,8.63-6,6.21-12.46,11.81-18,18.45a8.4,8.4,0,0,1-.59.71c-.11.14-.31-.06-.2-.19l.54-.65C337.52,353.32,337.84,345.89,340.6,339.47Z" style="fill:#455a64"></path><path d="M337.08,360.39c0-.05.06-.1.08-.15a60.58,60.58,0,0,1,3.64-5.92A117.5,117.5,0,0,1,350,343.15c1.25-1.38,7.49-7.93,2.94-8.88-1.92-.39-4.06,1.06-5.5,2.14a21.87,21.87,0,0,0-5.68,6.43c-2.94,4.93-4.05,10.59-4.68,16.22l-.09.77-.12.22a.71.71,0,0,0-.08.15.12.12,0,0,0,0,.1.19.19,0,0,0,.24.17A.13.13,0,0,0,337.08,360.39Zm.14-1.67a46.6,46.6,0,0,1,3.61-13.55,24.94,24.94,0,0,1,4.07-6.09,21.05,21.05,0,0,1,2.41-2.21,13.7,13.7,0,0,1,2-1.34c1.58-.85,3.63-1.19,4.32-.37.87,1,.43,1.77-.44,3.26a11.93,11.93,0,0,1-1,1.46,40.66,40.66,0,0,1-2.82,3.33c-1.62,1.79-3.23,3.58-4.77,5.43-1.05,1.25-2.06,2.54-3,3.85a60.6,60.6,0,0,0-4.54,7.1C337.13,359.3,337.18,359,337.22,358.72Z" style="fill:#fff"></path><path d="M157.43,377.51c3.91,2.65,7.63,5.57,11.31,8.53,2.09,1.67,4.15,3.37,6.25,5,2.31,1.84,4.54,3.95,7.49,4.59h0a1.38,1.38,0,0,1,.37.16l0,.05a.35.35,0,0,1-.37.49l-.2-.05-.07,0a12,12,0,0,1-2.63-.21,62.74,62.74,0,0,1-7.09-1,58.1,58.1,0,0,1-13.9-4.57,49.44,49.44,0,0,1-11-7.16c-2.64-2.3-6.62-5.68-7.78-9.12-1-3.12,3.19-3.1,5.19-2.82C149.62,372.07,153.74,375,157.43,377.51Z" style="fill:#455a64"></path><path d="M146.67,376.7c-.78,1.52,3.56,5.14,5.4,6.77a47,47,0,0,0,9.57,6.55,61.53,61.53,0,0,0,19.78,6.19l.84.12h.07l.19,0a.35.35,0,0,0,.38-.49c-.56-.17-1.11-.35-1.65-.55s-1-.37-1.45-.57c-5.2-2.15-9.94-5.48-14.56-8.66C159.8,382.36,147.71,374.69,146.67,376.7Zm34,18.82q1.08.41,2.16.72l-1.68-.29a68.27,68.27,0,0,1-17.51-5.36,48.84,48.84,0,0,1-8.82-5.38,45.34,45.34,0,0,1-4.19-3.64c-.55-.55-4.09-3.76-3.4-4.6.48-.58,4.26,1.16,4.35,1.19.75.34,1.5.72,2.24,1.12,1.52.8,3,1.69,4.45,2.6,3.15,2,6.2,4.15,9.29,6.24C171.65,390.91,176,393.77,180.64,395.52Z" style="fill:#fff"></path><path d="M181.24,359.47c4,5.59,5.77,12.43,6.85,19.12.58,3.59,1,7.2,1.48,10.8.41,3,.67,6.53,1.76,9.56,0,.13.09.27.14.41a12.35,12.35,0,0,0,1.24,2.43.17.17,0,0,1,0,.17l.2.22c0,.05,0,.13-.08.09l-.26-.17s0,0,0,0a.19.19,0,0,1-.21-.1.31.31,0,0,1-.07-.09l-.24-.17c-6-4.07-10.11-11.82-13.08-18.1s-4.91-13.15-4.17-20.11c.19-1.75.34-5.87,2.3-6.75C178.87,356,180.39,358.29,181.24,359.47Z" style="fill:#455a64"></path><path d="M179.05,363.8c-2,.65-.74,6.23-.47,7.6a73,73,0,0,0,3.71,12.11c2.46,6.48,5.34,12.61,9.63,18h0c0,.08.07.15.1.22l.25.18a.36.36,0,0,0,.07.1.22.22,0,0,0,.22.09c0-.11-.09-.21-.13-.31-.35-.79-.66-1.61-1-2.42-.05-.14-.1-.28-.14-.41-2.06-5.66-3.15-11.65-4.47-17.55a67.48,67.48,0,0,0-3.69-12.06C182.75,368.35,180.74,363.26,179.05,363.8Zm2.29,2.72c3.77,6.1,4.84,13.85,6.33,20.74a74.54,74.54,0,0,0,4,13.67,69.92,69.92,0,0,1-8.53-16.43,93.8,93.8,0,0,1-3.38-10,39.58,39.58,0,0,1-1.15-5.61,15.8,15.8,0,0,1-.07-3.44C179,363.29,180.69,365.47,181.34,366.52Z" style="fill:#fff"></path><path d="M205.22,409.33a.36.36,0,0,1,0,.36l.14,0a.12.12,0,0,1,.13.09.13.13,0,0,1-.07.14c-7.9,2.46-16.84,4.16-25.11,3.16a32.41,32.41,0,0,1-10.11-2.86c-2.17-1-6.54-3.14-7.16-5.78-1.24-5.3,13.79-1.83,16.06-1.29,4.13,1,8.16,2.27,12.27,3.32,4.5,1.13,9.06,1.95,13.63,2.76A.31.31,0,0,1,205.22,409.33Z" style="fill:#455a64"></path><path d="M205.22,409.33c-.45,0-.89.05-1.33.05a69.86,69.86,0,0,1-21.29-2.53A64,64,0,0,0,172,404.52c-.89-.08-4.2-.62-3.39,1.34.42,1,6.06,3.25,7.58,3.71a44.41,44.41,0,0,0,10.68,1.7A72.33,72.33,0,0,0,205,409.86l.51-.1a.1.1,0,0,0-.12-.09l-.13,0A.38.38,0,0,0,205.22,409.33Zm-15.29,1.61a51.23,51.23,0,0,1-10.69-1,37.14,37.14,0,0,1-4.13-1.14,23.43,23.43,0,0,1-3.1-1.27c-2.42-1.27-2.95-1.79-2.83-2.24.08-.28.52-.49,2.34-.46a18,18,0,0,1,3.49.48c1.62.36,3.24.77,4.85,1.2,3.22.86,6.44,1.77,9.71,2.38a54.12,54.12,0,0,0,14.26.85A83.7,83.7,0,0,1,189.93,410.94Z" style="fill:#fff"></path><path d="M201,386.23a20.25,20.25,0,0,1,5.3,7c2.66,5.24,4.16,11,6.45,16.36.34.8.69,1.6,1.08,2.39,0,.09.73.93.66.88s-.33-.24-.84-.64h0c-2.53-2-10.08-8.08-13.28-12.5a41.76,41.76,0,0,1-5.14-8.81c-.59-1.5-1.76-4.92-.4-6.34S199.74,385.28,201,386.23Z" style="fill:#455a64"></path><path d="M197.84,388.07c-2,1.22,3.85,10.08,4.6,11.25a59.25,59.25,0,0,0,9.87,11.73c.42.4.85.78,1.29,1.16l.83.65s-.6-.8-.66-.89-.12-.28-.19-.41c-.31-.66-.61-1.32-.88-2-2-3.55-3.89-7.14-5.94-10.65a54.83,54.83,0,0,0-4.94-7.25C201.39,391.17,198.73,387.54,197.84,388.07Zm2.06,1.71c5.87,6.23,8.86,14.34,13.19,21.58l.21.36c-.15-.16-.32-.3-.47-.46a67.18,67.18,0,0,1-8.32-9.59,64.48,64.48,0,0,1-4.09-6.58,33,33,0,0,1-1.94-3.79c-.21-.57-.75-2.18-.38-2.45C198.62,388.47,199.51,389.37,199.9,389.78Z" style="fill:#fff"></path><path d="M150.94,337.82c9.5,11.6,8,28.5,16.71,40.61l0,.06c.26.37.54.73.82,1.09a.28.28,0,0,1-.14.44.2.2,0,0,1-.22-.08,2.56,2.56,0,0,1-.2-.26c-6.87-4.72-12.89-11.63-17.58-18.47-4.06-6-7.19-12.86-7.18-20.19,0-1.8-.12-5.39,1.92-6.37S149.77,336.39,150.94,337.82Z" style="fill:#455a64"></path><path d="M149,342.88c-.85.42-.77,1.76-.77,2.5a22.74,22.74,0,0,0,.69,5.45,38.17,38.17,0,0,0,4.35,10.38,78.31,78.31,0,0,0,11.5,15.49c1,1,2.07,2,3.19,3l.41.34a.29.29,0,0,0,.15-.44c-.29-.34-.54-.69-.81-1.05,0,0,0-.06-.07-.1a46.08,46.08,0,0,1-5-7.37,108.21,108.21,0,0,1-5.36-12.83C156.62,356.53,151.93,341.42,149,342.88Zm2.39,2.3c2,3.1,3.1,6.81,4.42,10.25s2.63,7,4,10.43a52.39,52.39,0,0,0,4,7.92,40,40,0,0,0,4.39,5.94,56.54,56.54,0,0,1-5-5.22.18.18,0,0,1-.05-.08A102.53,102.53,0,0,1,155.46,364l-.09-.14a46.71,46.71,0,0,1-5.2-10.11,26.49,26.49,0,0,1-1.41-6c-.24-2.34-.19-4.25.6-4.39C149.9,343.23,150.81,344.27,151.4,345.18Z" style="fill:#fff"></path><path d="M155.74,363.78c2.62,3.36,5.33,6.69,8.07,10,1.27,1.56,2.56,3.12,3.84,4.65,0,0,0,.08.07.1l1.39,1.68c4.18,5.06,8.37,10.42,13.34,14.75a55.5,55.5,0,0,0,8.53,6l.94.54h0l.51.28.29.16c2.63,1.47,5.35,2.82,8,4.11,3.68,1.81,7.47,3.36,11.26,4.86a2.33,2.33,0,0,0,.33.14l.52.21.26.1.49.2c1.22.48,2.44,1,3.66,1.48l-.57,1.11A81.21,81.21,0,0,1,205.2,410l-.22-.11c-.37-.15-.73-.31-1.09-.48s-.89-.39-1.33-.61c-1.06-.5-2.11-1-3.15-1.51-6-2.95-12.21-6.21-17.38-10.54l-.43-.36-.18-.15-.3-.26-.48-.43-.84-.78-.24-.24c-4.32-4.15-8-9.11-11.69-13.77-.68-.86-1.34-1.72-2-2.58-.36-.48-.73-1-1.09-1.45l-1.63-2.2a.18.18,0,0,1-.05-.08c-2.57-3.47-5.06-7-7.64-10.44C155.35,363.82,155.61,363.61,155.74,363.78Z" style="fill:#455a64"></path></g><g id="freepik--robot-face--inject-118"><path d="M272.59,451.47c-26.39,7-66.46-6.45-85.43-38.84-1.28-2.22,1.49-26.11,3.48-55.28,1.14-17.72,2-37.46,1.47-55.54l108.65,17.75s-4.53,44.72-3.42,76.23a40.56,40.56,0,0,0,1,7.4c.05.34.16.75.2,1.22C301.24,418.44,298.1,444.64,272.59,451.47Z" style="fill:#FFC727"></path><path d="M300.76,319.56s0,.23-.07.66c0,.21-.05.48-.08.81a1.8,1.8,0,0,1,0,.22c0,.31-.06.64-.09,1s-.1,1-.14,1.53c0,.28-.06.57-.08.88-.15,1.57-.31,3.47-.49,5.64,0,.3-.05.6-.07.91,0,.16,0,.31,0,.47,0,.45-.08.9-.11,1.36s-.07.89-.11,1.35c-.18,2.31-.37,4.83-.55,7.5s-.36,5.19-.53,8c0,.71-.09,1.44-.13,2.16s-.07,1.24-.1,1.87c-.1,1.61-.18,3.25-.26,4.91l0,.6c0,.73-.07,1.46-.11,2.19,0,.48,0,.94-.06,1.4-.1,2.59-.21,5.21-.29,7.83,0,.47,0,.95,0,1.43,0,.71,0,1.42-.05,2.13,0,1-.05,1.9-.07,2.85,0,2.38-.07,4.74-.07,7.08h0c-32-2.22-72.27-13.59-105.3-50.34.06-1.34.1-2.69.13-4,0-.82.06-1.64.07-2.46,0-.12,0-.23,0-.34,0-1.19.06-2.37.08-3.55,0-1.73.07-3.46.09-5.18s0-3.37,0-5c0-3.9,0-7.77-.16-11.55Z" style="opacity:0.2"></path><path d="M215.89,326a4.29,4.29,0,1,1-.87-5.65A4.33,4.33,0,0,1,215.89,326Zm0,0a3.23,3.23,0,1,0-4.91.7A3.28,3.28,0,0,0,215.89,326Z" style="opacity:0.1"></path><path d="M214.64,356.18a4.29,4.29,0,1,1-.86-5.64A4.32,4.32,0,0,1,214.64,356.18Zm0,0a3.23,3.23,0,1,0-4.91.7A3.26,3.26,0,0,0,214.64,356.18Z" style="opacity:0.1"></path><path d="M213.4,386.33a4.29,4.29,0,1,1-.86-5.64A4.31,4.31,0,0,1,213.4,386.33Zm0,0a3.23,3.23,0,1,0-4.91.71A3.26,3.26,0,0,0,213.4,386.33Z" style="opacity:0.1"></path><path d="M212.15,416.49a4.29,4.29,0,1,1-.86-5.64A4.32,4.32,0,0,1,212.15,416.49Zm0,0a3.23,3.23,0,1,0-4.9.7A3.28,3.28,0,0,0,212.15,416.49Z" style="opacity:0.1"></path><path d="M204.24,306.89c-.81,35.95-2,71.95-5,107.8-.19,2-.55,5.14-.91,7.13,1.06-9.53,1.25-19.13,1.77-28.7,1.22-26.72,2.64-59.67,4.17-86.23Z" style="opacity:0.1"></path><path d="M188,301.31c-16,21.42,3.37,56.88,58.22,66.94,65.75,12.07,77.13-27.33,69-48.92S203.75,280.19,188,301.31Z" style="fill:#37474f"></path><path d="M264.06,67.81c-3.5,0-11.45,2.35-11.45,2.35l25.68,9.06-1.92-6.36Z" style="fill:#FFC727"></path><path d="M264.06,67.81c-3.5,0-11.45,2.35-11.45,2.35l25.68,9.06-1.92-6.36Z" style="opacity:0.2"></path><path d="M290.54,209c7.49,36.28,33,61.68,57,56.73s37.33-38.37,29.85-74.65-33-61.68-57-56.73S283.06,172.68,290.54,209Z" style="fill:#FFC727"></path><g style="opacity:0.2"><path d="M290.54,209c7.49,36.28,33,61.68,57,56.73s37.33-38.37,29.85-74.65-33-61.68-57-56.73S283.06,172.68,290.54,209Z"></path></g><path d="M295.8,207.3c4.46,21.63,19.66,36.76,33.95,33.82s22.25-22.87,17.79-44.5-19.66-36.76-34-33.81S291.34,185.68,295.8,207.3Z" style="fill:#FFC727"></path><g style="opacity:0.1"><path d="M295.8,207.3c4.46,21.63,19.66,36.76,33.95,33.82s22.25-22.87,17.79-44.5-19.66-36.76-34-33.81S291.34,185.68,295.8,207.3Z"></path></g><path d="M341,234a16.12,16.12,0,0,1-5.34,2.19c-12.48,2.58-25.78-10.65-29.67-29.55s3.06-36.31,15.54-38.89a17.35,17.35,0,0,1,12.15,2.2h0c6.42,6.11,11.57,15.52,13.87,26.67C350.62,211.58,347.77,225.71,341,234Z" style="fill:#FFC727"></path><path d="M345.86,147.77c19.72,12.71,29.47,42.7,26.55,65.28-6.07-23-12.65-45.69-26.55-65.28Z" style="fill:#fff;opacity:0.4"></path><path d="M193.68,304.87a114.73,114.73,0,0,0,35.63,20.36c23.92,8.5,49.71,8.5,71.51-1.53,15.55-7,29.13-19.19,38.47-37,28.65-54.31-5.52-177-40.21-200.53C248,51.41,163.5,73.36,148.85,138.88,138.93,183.32,162.25,278.51,193.68,304.87Z" style="fill:#263238"></path><path d="M287,79.21h-.12c-41.49-6-75.35-.83-99.88,6.49,1.18-.75,2.39-1.46,3.61-2.16,23.36-6.48,54.45-10.77,91.93-6,1.34.47,2.68,1,4,1.52Zm13.11,7.67c-49.32-8.66-88.61-1.62-115.14,7.26-5.43,1.82-10.6,3.8-15.5,5.9-.63.66-1.24,1.32-1.83,2,5.57-2.47,11.51-4.8,17.8-6.91,26.73-9,66.49-16,116.48-6.85C301.3,87.78,300.69,87.31,300.09,86.88Zm8.46,8.1c-51.05-9.68-91.63-2.52-118.82,6.59a200.47,200.47,0,0,0-31.68,13.71c-.36.59-.7,1.21-1,1.82a198.6,198.6,0,0,1,33.16-14.53c27.26-9.13,68.06-16.3,119.44-6.28Zm5.71,7.61c-51.48-10-92.4-2.75-119.76,6.4a196.27,196.27,0,0,0-42.91,20.3c-.19.56-.39,1.13-.58,1.7a195.5,195.5,0,0,1,44-21c27.38-9.18,68.4-16.36,120.11-6.16C314.81,103.41,314.54,103,314.26,102.59Zm4.58,7.38c-51.4-9.87-92.23-2.69-119.55,6.45a192.41,192.41,0,0,0-51.12,25.84c-.08.52-.17,1.06-.26,1.6a189.88,189.88,0,0,1,51.83-26.43c27.32-9.15,68.25-16.33,119.81-6.21C319.32,110.8,319.08,110.37,318.84,110Zm3.92,7.27c-51-9.65-91.53-2.49-118.7,6.61-24.81,8.32-44.27,20.06-57.26,30.54,0,.51-.06,1-.08,1.53,12.85-10.55,32.52-22.6,57.8-31.07,27.16-9.09,67.75-16.23,118.86-6.39C323.17,118.05,323,117.65,322.76,117.24Zm3.46,7.19c-50.38-9.29-90.46-2.18-117.37,6.85-28.26,9.47-49.57,23.39-62.29,34.81l0,1.51c12.5-11.45,34-25.68,62.7-35.32,26.91-9,67-16.11,117.47-6.65Zm3.1,7.13c-49.59-8.82-89.07-1.76-115.7,7.15-31.69,10.62-54.64,26.84-66.55,38.84,0,.51.08,1,.13,1.53,11.52-12,34.62-28.56,66.88-39.37,26.6-8.9,66.09-15.93,115.71-7C329.63,132.34,329.47,132,329.32,131.56Zm2.78,7.08c-48.66-8.28-87.43-1.3-113.7,7.51C183,158,158.57,176.79,148.17,188.94c.07.53.13,1.06.2,1.6,9.77-12,34.4-31.31,70.48-43.4,26.23-8.79,65-15.75,113.68-7.33Zm2.53,7.05C287,138,249,144.92,223.17,153.58c-39.62,13.26-65.56,35.28-73.36,46.88,0,0,0,0,0,0l0,0,1,.53c7.68-11.45,33.42-33.29,72.78-46.48,25.82-8.64,63.8-15.52,111.4-7.71Zm2.31,7c-46.45-7.06-83.57-.23-109,8.28-39.66,13.28-65.62,35.33-73.42,46.92l1.08.54C163.31,197,189,175.19,228.4,162c25.36-8.49,62.46-15.29,108.9-8.13C337.17,153.49,337.06,153.11,336.94,152.73Zm2.1,7c-45.19-6.4-81.38.31-106.31,8.67-39.65,13.28-65.62,35.33-73.41,46.92l1.08.54c7.7-11.44,33.42-33.28,72.78-46.46,24.87-8.34,61-15,106.18-8.54C339.26,160.53,339.16,160.14,339,159.77Zm1.93,7c-43.87-5.73-79.06.88-103.46,9.05-39.66,13.28-65.63,35.34-73.39,46.93l1.06.54C172.87,211.89,198.6,190,238,176.87c24.34-8.17,59.48-14.75,103.31-8.93C341.16,167.55,341.06,167.18,341,166.81Zm1.73,7.05c-42.44-5.05-76.58,1.45-100.42,9.43-39.66,13.28-65.62,35.33-73.39,46.93l1.06.54c7.7-11.44,33.43-33.29,72.8-46.46,23.75-8,57.82-14.44,100.21-9.33C342.88,174.6,342.79,174.24,342.7,173.86Zm1.56,7.07c-41-4.36-74,2-97.2,9.79-39.66,13.28-65.63,35.33-73.4,46.93l1.07.54c7.69-11.44,33.42-33.29,72.79-46.47,23.15-7.76,56.07-14.1,97-9.69C344.43,181.67,344.34,181.3,344.26,180.93Zm1.4,7.1c-39.41-3.67-71.23,2.55-93.83,10.12-39.66,13.28-65.62,35.33-73.39,46.93l1.06.54c7.69-11.45,33.43-33.28,72.8-46.47,22.5-7.54,54.25-13.73,93.55-10C345.79,188.75,345.73,188.39,345.66,188Z" style="fill:#455a64"></path><path d="M185.59,321.83c44.54,42.3,93.07,41.36,117.77,30.42,17.61-7.68,36.25-31.55,46.91-50.84C383,242.65,342,114.64,305.94,85.23c-13.57-11.09-33-16.89-41.88-17.42C296.37,84.48,307.73,150,307.73,150l-75.2,9.37s-13.79-72.14-47.73-79.3c0,0-33,8.33-49,61.18C121.54,188.51,152.74,290.65,185.59,321.83Z" style="fill:#FFC727"></path><g style="opacity:0.1"><path d="M162.14,287.47c13.16-15.09,39-45,39.46-48.84.7-5.09-4.37-55.57-6.4-60.36-1.71-4.1-33.81-50.52-46.9-65.74a128.89,128.89,0,0,0-12.45,28.74C125.11,176.78,140.07,243.35,162.14,287.47Z"></path><path d="M260.62,358.17c17.19,1.62,32.14-1.2,42.74-5.9,5.82-2.55,11.73-6.83,17.42-12.16-4.39-2.58-9.95-5.44-12.69-5.69-4.61-.41-28.35,4.41-31.79,5.68C273.88,341,265.52,351.68,260.62,358.17Z"></path><path d="M362.17,241.58c-6.19-8.5-13-19.83-13.39-21.19-.83-3.12-20.73-71.31-21-75.73-.11-2.29.48-16,1.11-28.75v0c.51.94,1,1.9,1.52,2.9l.09.16c5.84,11.41,12,26.69,17.69,43.38,0,.08,0,.16.08.25C356.33,187.91,361.7,215.86,362.17,241.58Z"></path></g><path d="M359.57,264.55C355,292.32,325.63,327,323.42,328.19c-1.08.59-3-.87-6.55-3.72-2.69-2.15-5.74-4.59-7.7-5.08-3.87-1-36.3,4.3-40.14,6.06-1.5.68-4.53,4.27-7.45,7.74-4.55,5.39-7.43,8.68-9.12,8.68-15.12,0-63.94-55-65.31-58.75-.77-2.12,4.41-9.37,12.92-21,5.84-8,12.47-17.06,12.63-19.51.33-5.13-4.85-63.94-7.22-69.42-1.89-4.38-36.62-50.84-50.91-69.87.21-.29.44-.57.66-.86,14.24,19,49.25,65.76,51.21,70.31,2.4,5.58,7.69,63.81,7.3,69.91-.18,2.75-6.32,11.16-12.83,20.06-6,8.17-13.41,18.32-12.78,20,1.36,3.73,49.46,58.07,64.33,58.07,1.33,0,5.2-4.61,8.32-8.31s6.1-7.24,7.83-8c3.19-1.46,36.43-7.21,40.81-6.12,2.19.55,5.33,3.07,8.11,5.28,1.9,1.53,4.8,3.83,5.4,3.62,1.33-.81,31-34.47,35.61-62.91.68-4.13-7.47-16.13-14-25.77-4.15-6.11-7.73-11.39-8.33-13.59-1.8-6.62-19-77.82-19.26-83-.16-3.67,2.66-25.67,4.4-38.76.28.45.58.9.87,1.35-1.74,13.16-4.38,33.93-4.23,37.36.23,5,17.47,76.37,19.23,82.83.55,2,4.25,7.49,8.17,13.27C352.38,248.32,360.31,260,359.57,264.55Z" style="opacity:0.1"></path><path d="M251,280.66s35.31-2.66,41.87-3.57c10.56-1.47,34.93-7,34.93-7a186.94,186.94,0,0,1-18,8.29c-7.43,2.77-28.14,5.37-34.46,4.85C262.49,282.21,251,280.66,251,280.66Z" style="opacity:0.1"></path><path d="M272.81,291.58s18.45-1.39,21.88-1.87c5.52-.77,18.26-3.64,18.26-3.64a98,98,0,0,1-9.42,4.33c-3.88,1.45-14.7,2.81-18,2.54C278.84,292.39,272.81,291.58,272.81,291.58Z" style="opacity:0.1"></path><path d="M267.49,256.12s10.06,2.68,16.27,2.13c3.69-.33,12.54-1.58,15.1-2.12,5.46-1.16,10.21-5.6,10.21-5.6s-3.91,7.49-8.06,9.15c-3.84,1.53-14.58,3-17.86,2.67C276.51,261.76,267.49,256.12,267.49,256.12Z" style="opacity:0.1"></path><path d="M214.64,202.43c-2.26,2.16,3.25,45.1,7.2,47.65s120.33-14,122.65-14.79-4.11-45.52-6-48S219.28,198,214.64,202.43Z" style="fill:#263238"></path><path d="M212.13,214.22c-.3,6.49,1,13,1.92,19.42,1.16,6.22,1.94,12.94,4.86,18.58.72,1.35,2.37,1.08,3.72,1.22a133.72,133.72,0,0,0,14.55-.71c32.17-3.27,65-7.87,97.07-12.34a938.93,938.93,0,0,1-96.92,14.16,134.87,134.87,0,0,1-14.78.58c-1.75-.1-4.06-.23-5-2.08-3-6-3.49-12.75-4.52-19.27-.6-6.47-1.68-13.07-.94-19.56Z" style="opacity:0.1"></path><path d="M347.79,223.33a80,80,0,0,0-.87-10.92A173.55,173.55,0,0,0,343,190.9a29,29,0,0,0-1.79-5c-.38-.75-.86-1.5-1.34-1.61a12,12,0,0,0-2.47-.34c-14.59-.09-29.12,1.87-43.72,2.27a269.11,269.11,0,0,1,32.75-4,85.47,85.47,0,0,1,11.09,0,9,9,0,0,1,3.35.76,5.16,5.16,0,0,1,1.74,2.24c2.2,5.18,2.89,10.74,3.75,16.21.86,7.27,1.88,14.62,1.46,21.93Z" style="fill:#fff;opacity:0.4"></path><path d="M244.11,211.1c14.23-2,17.2,26.59,4,28.46C235.16,241.39,232.18,212.79,244.11,211.1Z" style="fill:#FFC727"></path><g style="opacity:0.30000000000000004"><path d="M244.47,213.14c12.18-1.72,14.72,22.77,3.44,24.36C236.8,239.07,234.26,214.58,244.47,213.14Z" style="fill:#fff"></path></g><path d="M317.47,202.44c14.23-2,17.2,26.6,4,28.46C308.52,232.73,305.55,204.13,317.47,202.44Z" style="fill:#FFC727"></path><g style="opacity:0.30000000000000004"><path d="M317.84,204.55c12.11-1.71,14.65,22.64,3.42,24.22C310.22,230.33,307.69,206,317.84,204.55Z" style="fill:#fff"></path></g><path d="M290.7,84.09c7.95,1.16,15.79,9.77,20.86,15.63,16.49,20.41,26.83,45.64,30.52,71.53-10.17-23.61-20-47.32-34.28-68.71a117.36,117.36,0,0,0-7.57-10.19c-2.75-3.17-5.6-6.54-9.53-8.26Z" style="fill:#fff;opacity:0.4"></path><path d="M112,239.15c7.49,36.28,33,61.68,57,56.73s37.34-38.37,29.85-74.65-33-61.68-57-56.73S104.52,202.86,112,239.15Z" style="fill:#FFC727"></path><g style="opacity:0.2"><path d="M112,239.15c7.49,36.28,33,61.68,57,56.73s37.34-38.37,29.85-74.65-33-61.68-57-56.73S104.52,202.86,112,239.15Z"></path></g><path d="M117.16,237c4.08,21.71,19,37.12,33.34,34.42s22.66-22.46,18.59-44.16-19-37.12-33.34-34.42S113.09,215.32,117.16,237Z" style="fill:#FFC727"></path><g style="opacity:0.1"><path d="M117.16,237c4.08,21.71,19,37.12,33.34,34.42s22.66-22.46,18.59-44.16-19-37.12-33.34-34.42S113.09,215.32,117.16,237Z"></path></g><path d="M161.86,264.51a15.81,15.81,0,0,1-5.38,2.1C144,269,130.9,255.5,127.34,236.54s3.72-36.25,16.25-38.61a17.42,17.42,0,0,1,12.1,2.41,0,0,0,0,1,0,0c6.31,6.22,11.29,15.73,13.39,26.92C171.9,242.29,168.79,256.37,161.86,264.51Z" style="fill:#FFC727"></path><path d="M148.55,173.55a4.29,4.29,0,1,1-.86-5.64A4.31,4.31,0,0,1,148.55,173.55Zm0,0a3.23,3.23,0,1,0-4.9.7A3.26,3.26,0,0,0,148.55,173.55Z" style="opacity:0.1"></path><path d="M171.1,182.65a4.29,4.29,0,1,1-.86-5.64A4.3,4.3,0,0,1,171.1,182.65Zm0,0a3.23,3.23,0,1,0-4.9.7A3.27,3.27,0,0,0,171.1,182.65Z" style="opacity:0.1"></path><path d="M187.29,204.26a4.29,4.29,0,1,1-.86-5.64A4.31,4.31,0,0,1,187.29,204.26Zm0,0a3.23,3.23,0,1,0-4.91.7A3.26,3.26,0,0,0,187.29,204.26Z" style="opacity:0.1"></path><path d="M195.48,233.25a4.29,4.29,0,1,1-.86-5.64A4.31,4.31,0,0,1,195.48,233.25Zm0,0a3.23,3.23,0,1,0-4.9.71A3.27,3.27,0,0,0,195.48,233.25Z" style="opacity:0.1"></path><path d="M183,284a4.29,4.29,0,1,1-.86-5.64A4.32,4.32,0,0,1,183,284Zm0,0a3.23,3.23,0,1,0-4.91.7A3.26,3.26,0,0,0,183,284Z" style="opacity:0.1"></path><path d="M160.76,291.05a4.29,4.29,0,1,1-.86-5.64A4.32,4.32,0,0,1,160.76,291.05Zm0,0a3.23,3.23,0,1,0-4.91.71A3.27,3.27,0,0,0,160.76,291.05Z" style="opacity:0.1"></path><path d="M139.12,279.75c-.44,1.83-1.94,3.25-3.58,2.69s-2.94-3.26-2.25-5.71,2.84-3.49,4.3-2.32S139.6,278,139.12,279.75Zm0,0c.54-1.93-.54-4.1-1.79-4.34s-2.29.78-2.6,2.07a4,4,0,0,0,1.06,4C136.86,282.41,138.67,281.72,139.12,279.75Z" style="opacity:0.1"></path><path d="M125.09,264.08c-.26,1.56-1.18,2.76-2.2,2.27s-1.84-2.8-1.43-4.88,1.73-3,2.64-2S125.37,262.55,125.09,264.08Zm0,0c.32-1.63-.37-3.5-1.14-3.71s-1.41.64-1.6,1.74a4.41,4.41,0,0,0,.69,3.4C123.71,266.33,124.82,265.76,125.09,264.08Z" style="opacity:0.1"></path><path d="M117.37,201.91c-.26,1.56-1.18,2.76-2.19,2.27s-1.85-2.8-1.44-4.88,1.73-3,2.64-2S117.65,200.38,117.37,201.91Zm0,0c.32-1.63-.37-3.5-1.14-3.72s-1.41.65-1.6,1.75a4.41,4.41,0,0,0,.69,3.4C116,204.16,117.11,203.59,117.37,201.91Z" style="opacity:0.1"></path><path d="M128.15,183.48c-.44,1.83-1.94,3.25-3.57,2.69s-3-3.26-2.26-5.71,2.85-3.49,4.3-2.32S128.64,181.68,128.15,183.48Zm0,0c.54-1.92-.54-4.1-1.79-4.34s-2.28.78-2.6,2.07a4,4,0,0,0,1.07,4C125.9,186.14,127.7,185.45,128.15,183.48Z" style="opacity:0.1"></path><path d="M194.75,260.34a4.29,4.29,0,1,1-.86-5.64A4.32,4.32,0,0,1,194.75,260.34Zm0,0a3.23,3.23,0,1,0-4.91.7A3.26,3.26,0,0,0,194.75,260.34Z" style="opacity:0.1"></path><path d="M116,248.76c6.24,10.18,12.38,21.56,22.76,27.69,7.5,4.3,17.44,4.6,24.2-1.31a30.57,30.57,0,0,0,6.17-6.73,23.36,23.36,0,0,1-8.48,11.41c-7,4.93-16.65,4.19-23.85.11-11.19-6.64-17.23-19.19-20.8-31.17Z" style="opacity:0.1"></path></g></svg>